<svg width="75" height="75" viewBox="0 0 75 75" fill="none" xmlns="http://www.w3.org/2000/svg">
<path d="M1 13.1666L25.3332 1L49.6665 13.1666L73.9997 1V61.8331L49.6665 73.9997L25.3332 61.8331L1 73.9997V13.1666Z" stroke="#94C4ED" stroke-width="2" stroke-linecap="round" stroke-linejoin="round"/>
<path d="M25.3335 1V61.8331" stroke="#94C4ED" stroke-width="2" stroke-linecap="round" stroke-linejoin="round"/>
<path d="M49.6663 13.167V74.0001" stroke="#94C4ED" stroke-width="2" stroke-linecap="round" stroke-linejoin="round"/>
<path d="M37.4998 45.2423C48.4953 45.2423 57.4088 36.3288 57.4088 25.3333C57.4088 14.3379 48.4953 5.42432 37.4998 5.42432C26.5044 5.42432 17.5908 14.3379 17.5908 25.3333C17.5908 36.3288 26.5044 45.2423 37.4998 45.2423Z" fill="white" stroke="#94C4ED" stroke-width="2"/>
<path d="M37.5 13C43.7804 13 49 18.5226 49 25.5C49 32.4776 43.7804 38 37.5 38C31.2196 38 26 32.4776 26 25.5C26 18.5226 31.2196 13 37.5 13Z" stroke="#79B6E6" stroke-width="2"/>
<path d="M37.0833 19.0913L39.1111 23.1878H43.1666L39.9222 26.0554L41.1388 30.1519L37.0833 27.694L33.0278 30.1519L34.2444 26.0554L31 23.1878H35.0555L37.0833 19.0913Z" fill="#94C4ED"/>
</svg>
